<svg xmlns="http://www.w3.org/2000/svg" width="107.555" height="107.56" viewBox="0 0 107.555 107.56">
                            <g data-name="Group 309" fill="#fff">
                                <path data-name="customer-support (1)" d="m107.507 105.41-4.316-17.434a10.96 10.96 0 0 0-5.312-6.967c-3.463-3.8-4.354-7.873-2.621-12.114a22.7 22.7 0 0 0 1.8-7.052c.939-13.319-6.943-21.114-15.172-22.932-6.211-1.371-11.8.7-13.91 5.052a9.3 9.3 0 0 0-4.212 5.066c-2.522 6.2-1.686 15.867.678 21.231a17.14 17.14 0 0 1-2.134 10.132 9.1 9.1 0 0 0-5.238 5.4 97 97 0 0 0-2.783 9.823c-.772-3.68-2.045-7.073-4.25-8.91a12.7 12.7 0 0 0-3.84-2.025l-8.82-3.64c.033-.01.061-.029.1-.04a41 41 0 0 1-.44-4.133 21.5 21.5 0 0 0 4.655-7.29c.021-.009.042-.01.062-.019 1.837-.746 3.286-3.095 3.968-4.88a6.76 6.76 0 0 0-.271-5.807c1.112-5.019.807-10.714-2.274-15.055-4.129-5.012-9.549-5.295-15.508-5.6-2.755-.144-6.653-.019-9.576 1.374-1.192.564-1.232 3.027-1.232 3.1a12.66 12.66 0 0 0-5.517 8.416 24 24 0 0 0-.078 6.426c-1.969 1.235-2.679 4.249-1.569 7.147.68 1.783 2.125 4.132 3.966 4.88.024.01.05.014.075.023a23.7 23.7 0 0 0 4.955 7.805 9.3 9.3 0 0 1-.633 3.667l-7.836 3.248a13.8 13.8 0 0 0-5.27 2.779C1.315 90.361.409 98.057.029 104.395c-.092 1.339-.073 3.166 1.768 3.166H105.82a1.762 1.762 0 0 0 1.686-2.151ZM42.472 63.44a6.8 6.8 0 0 1-1.82 2.779 5.9 5.9 0 0 1-.1-3.962 3.08 3.08 0 0 1 1.445-1.79.38.38 0 0 1 .3-.029c.326.148.791 1.39.175 3.002m-27.7 2.8a6.7 6.7 0 0 1-1.846-2.8c-.616-1.612-.151-2.854.187-3.013.7-.319 1.561 1.419 1.726 1.832a6.1 6.1 0 0 1-.064 3.981Zm-.052-8.973c-.29-4.762-.026-9.273 4.544-11.986 1.027-.612 1.046-1.75 1.065-2.757v-.106a19.5 19.5 0 0 1 7.156-.736c4.811.248 9.564.168 12.916 4.223a14.87 14.87 0 0 1 1.9 11.049 4.1 4.1 0 0 0-2.234.647c.09-2.948.09-4.016-.455-4.783-.612-.859-1.433-.791-2.673-.689a24.2 24.2 0 0 1-6.957-.194c-3.1-.7-6.4-2.863-7.8-3.785-.833-.546-1.384-.906-2.234-.592-1.549.573-3.461 6.464-4.46 10.132a5 5 0 0 0-.769-.423Zm2.453 11.582c2.2-2.038 1.377-6.136 1.1-8.228-.134-1 1.837-6.391 2.906-8.983a27.2 27.2 0 0 0 8.039 3.683 25.8 25.8 0 0 0 7.423.316 56 56 0 0 0 .168 8.35 7.08 7.08 0 0 0 1.456 4.823c-1.968 4.709-6.306 9.157-11.158 9.083-4.332-.127-7.972-4.439-9.934-9.049Zm16.932 13.11-6.4 10.55-6.335-10.412a9.4 9.4 0 0 0 .566-2.2 11.58 11.58 0 0 0 11.811-.425c.094.829.234 1.653.359 2.479Zm10.5 22.137v-6.129a1.737 1.737 0 0 0-3.473 0v6.122H14.288v-6.122a1.737 1.737 0 0 0-3.473 0v6.122h-7.3c.508-7.793 1.77-12.649 3.749-14.436a11.9 11.9 0 0 1 4.008-2.04l7.5-3.109 7.455 12.243a1.758 1.758 0 0 0 2.968 0l7.436-12.257 7.512 3.114a13 13 0 0 1 3.662 1.763c2.144 1.79 3.517 6.743 4.077 14.729h-7.279Zm23.292-34.114a5 5 0 0 0-.177-.883c-2.118-4.538-2.944-13.36-.748-18.764a5.65 5.65 0 0 1 2.935-3.44 1.74 1.74 0 0 0 1.006-1c1.213-3.173 5.408-4.653 10.217-3.591 6.278 1.388 13.3 7.274 12.456 19.3a19.5 19.5 0 0 1-1.549 5.987 13.57 13.57 0 0 0 .311 11.438c-1.986-.515-4.1-.775-5.506-2.441l-1.1-4.124a16 16 0 0 0 2.762-4.478 2.2 2.2 0 0 0 1.493-.696l-.035-.033c1.178-1.4 2.162-5.8 2.233-6.53a2.126 2.126 0 0 0-1.198-2.289c-.094-7.456-.855-7.593-2.045-7.81a8.1 8.1 0 0 0-3.518.455c-3.213.85-7.613 2.016-12.463-2.767a1.75 1.75 0 0 0-2.948 1.084 74 74 0 0 1-1.332 8.674 2.15 2.15 0 0 0-1.879 1.386c-.651 1.546 1.355 7.075 1.874 7.677a2.15 2.15 0 0 0 1.5.77 19.5 19.5 0 0 0 2.25 3.9l-.85 5.229c-1.353 1.325-3.081 1.5-4.844 1.922a20.4 20.4 0 0 0 1.155-8.976m19.869-8.315a1.7 1.7 0 0 0 .626.514c-.2.656-.455 1.388-.685 1.986-1.73-.16-2.325 2.358-2.916 3.517-.961 1.881-2.9 4.311-5.184 4.658s-4.662-2.738-5.584-4.481c-.626-1.194-1.173-3.684-2.886-3.684h-.026c-.186-.546-.4-1.244-.585-1.9.992-.6 1.233-2.125 1.475-3.149.481-2.047.826-4.131 1.112-6.212 4.59 3.1 9.16 2.446 14.2 1.266.132 1.369.219 3.718.224 5.7a1.91 1.91 0 0 0 .232 1.782Zm-10.144 42.424H65.997v-6.145a1.737 1.737 0 0 0-3.473 0v6.145h-6.646c1.776-8.275 4.127-17.007 4.976-18.384 1.372-2.191 5.543-3.126 8.038-3.687a10.7 10.7 0 0 0 3.822-1.466c1.6 2.941 2.963 6.263 4.908 8.983zm-2.6-26.569.493-3.033a6.32 6.32 0 0 0 7.245.229l.668 2.493-4.372 7.744Zm21.29 26.569v-6.145a1.737 1.737 0 0 0-3.473 0v6.145H81.092V88.484c0-.023-.012-.042-.012-.064l4.637-8.215c3.071 2.1 6.958 2.1 10.27 3.714a7.52 7.52 0 0 1 3.831 4.889l3.785 15.282Z"></path>
                                <g data-name="Group 306">
                                    <path data-name="Path 48" d="M58.551 1.52a4.8 4.8 0 0 0-3.5-1.52H52.5a4.784 4.784 0 0 0-4.773 5.113L49.006 23.6a4.784 4.784 0 0 0 9.545 0l1.275-18.492a4.8 4.8 0 0 0-1.275-3.588m-.531 3.469L56.745 23.48a2.974 2.974 0 0 1-5.933 0L49.537 4.988a2.97 2.97 0 0 1 2.967-3.178h2.551a2.97 2.97 0 0 1 2.965 3.179"></path>
                                    <path data-name="Path 49" d="M53.778 30.775a5.431 5.431 0 1 0 5.431 5.431 5.437 5.437 0 0 0-5.431-5.431m0 9.052a3.621 3.621 0 1 1 3.621-3.621 3.625 3.625 0 0 1-3.621 3.621"></path>
                                </g>
                            </g>
                        </svg>