<svg xmlns="http://www.w3.org/2000/svg" width="95.694" height="95.694" viewBox="0 0 95.694 95.694">
                            <g fill="#fff">
                                <path data-name="Path 50" d="M16.978 83.346H4.63A4.636 4.636 0 0 0 0 87.976v6.17a1.543 1.543 0 0 0 1.543 1.543h18.522a1.543 1.543 0 0 0 1.543-1.543v-6.17a4.636 4.636 0 0 0-4.63-4.63m1.543 9.261h-1.543V89.52h-3.087v3.087H7.717V89.52H4.63v3.087H3.087v-4.631a1.545 1.545 0 0 1 1.543-1.543h12.348a1.545 1.545 0 0 1 1.543 1.543Z"></path>
                                <path data-name="Path 51" d="M16.978 77.173v-3.087a6.174 6.174 0 1 0-12.348 0v3.087a6.174 6.174 0 1 0 12.348 0m-3.087 0a3.087 3.087 0 0 1-6.174 0v-3.087a3.087 3.087 0 1 1 6.174 0Z"></path>
                                <path data-name="Path 52" d="M41.673 83.346H29.325a4.636 4.636 0 0 0-4.63 4.63v6.17a1.543 1.543 0 0 0 1.543 1.543H44.76a1.543 1.543 0 0 0 1.543-1.543v-6.17a4.636 4.636 0 0 0-4.63-4.63m1.543 9.261h-1.543V89.52h-3.087v3.087h-6.174V89.52h-3.087v3.087h-1.543v-4.631a1.545 1.545 0 0 1 1.543-1.543h12.348a1.545 1.545 0 0 1 1.543 1.543Z"></path>
                                <path data-name="Path 53" d="M41.674 77.173v-3.087a6.174 6.174 0 1 0-12.348 0v3.087a6.174 6.174 0 1 0 12.348 0m-3.087 0a3.087 3.087 0 0 1-6.174 0v-3.087a3.087 3.087 0 1 1 6.174 0Z"></path>
                                <path data-name="Path 54" d="M66.369 83.346H54.021a4.636 4.636 0 0 0-4.63 4.63v6.17a1.543 1.543 0 0 0 1.543 1.543h18.522a1.543 1.543 0 0 0 1.543-1.543v-6.17a4.636 4.636 0 0 0-4.63-4.63m1.543 9.261h-1.543V89.52h-3.087v3.087h-6.174V89.52h-3.087v3.087h-1.543v-4.631a1.545 1.545 0 0 1 1.543-1.543h12.348a1.545 1.545 0 0 1 1.543 1.543Z"></path>
                                <path data-name="Path 55" d="M66.369 77.173v-3.087a6.174 6.174 0 1 0-12.348 0v3.087a6.174 6.174 0 1 0 12.348 0m-3.087 0a3.087 3.087 0 0 1-6.174 0v-3.087a3.087 3.087 0 1 1 6.174 0Z"></path>
                                <path data-name="Path 56" d="M91.064 83.346H78.716a4.636 4.636 0 0 0-4.63 4.63v6.17a1.543 1.543 0 0 0 1.543 1.543h18.522a1.543 1.543 0 0 0 1.543-1.543v-6.17a4.636 4.636 0 0 0-4.63-4.63m1.543 9.261h-1.543V89.52h-3.087v3.087h-6.174V89.52h-3.087v3.087h-1.543v-4.631a1.545 1.545 0 0 1 1.543-1.543h12.348a1.545 1.545 0 0 1 1.543 1.543Z"></path>
                                <path data-name="Path 57" d="M91.064 77.173v-3.087a6.174 6.174 0 1 0-12.348 0v3.087a6.174 6.174 0 1 0 12.348 0m-3.087 0a3.087 3.087 0 0 1-6.174 0v-3.087a3.087 3.087 0 1 1 6.174 0Z"></path>
                                <path data-name="Path 58" d="M12.348 60.195h21.613v4.63h3.087v-4.63h21.603v4.63h3.087v-4.63h21.609v4.63h3.087v-6.174a1.543 1.543 0 0 0-1.543-1.543h-35.5v-3.087h18.521a1.543 1.543 0 0 0 1.543-1.543v-9.261a10.817 10.817 0 0 0-10.8-10.8h-.48a13.9 13.9 0 0 0 2.757-4.63h2.354a4.619 4.619 0 0 0 1.543-8.977v-6.462A12.36 12.36 0 0 0 52.478 0h-9.261a12.36 12.36 0 0 0-12.348 12.348v6.458a4.619 4.619 0 0 0 1.543 8.977h2.354a13.9 13.9 0 0 0 2.757 4.63h-.48a10.817 10.817 0 0 0-10.8 10.8v9.261a1.543 1.543 0 0 0 1.543 1.543h18.518v3.087h-35.5a1.543 1.543 0 0 0-1.543 1.547v6.174h3.087Zm35.5-19.761-2.409-3.615a13.1 13.1 0 0 0 4.819 0Zm-2.253 2.184-3.234 1.614-4.364-8.732h2.851Zm9.252-7.118h2.851l-4.367 8.732-3.229-1.614Zm8.435-10.8h-1.635a14 14 0 0 0 .091-1.543v-1.549h1.543a1.543 1.543 0 0 1 0 3.087ZM43.217 3.087h9.261a9.27 9.27 0 0 1 9.261 9.261v6.174h-6.178a3.09 3.09 0 0 1-3.087-3.087V9.261h-3.083V10.8a7.726 7.726 0 0 1-7.717 7.717h-7.713v-6.169a9.27 9.27 0 0 1 9.256-9.261M32.413 24.7a1.543 1.543 0 0 1 0-3.087h1.548v1.543a14 14 0 0 0 .091 1.543Zm4.63-3.087h4.63a10.78 10.78 0 0 0 8.2-3.788 6.18 6.18 0 0 0 5.688 3.783h3.09v1.543a10.804 10.804 0 1 1-21.608 0Zm-7.717 21.604a7.7 7.7 0 0 1 5.414-7.327L40.292 47a1.547 1.547 0 0 0 2.071.69l5.484-2.743 5.484 2.741a1.5 1.5 0 0 0 .688.164 1.55 1.55 0 0 0 1.383-.854l5.552-11.105a7.705 7.705 0 0 1 5.414 7.328v7.717H29.326Z"></path>
                            </g>
                        </svg>