<svg xmlns="http://www.w3.org/2000/svg" width="107.049" height="107.049" viewBox="0 0 107.049 107.049">
                            <g data-name="04-Profit">
                                <path data-name="Path 59" d="M16.057 71.366C8.077 71.366 0 73.817 0 78.5v21.41c0 4.685 8.077 7.137 16.057 7.137s16.057-2.451 16.057-7.137V78.5c.001-4.683-8.077-7.134-16.057-7.134m0 32.115c-8.112 0-12.489-2.532-12.489-3.568v-6.067a28.3 28.3 0 0 0 12.489 2.5 28.3 28.3 0 0 0 12.489-2.5v6.066c0 1.036-4.376 3.569-12.489 3.569m0-10.7c-8.112 0-12.489-2.532-12.489-3.568v-6.072a28.3 28.3 0 0 0 12.489 2.5 28.3 28.3 0 0 0 12.489-2.5v6.066c0 1.036-4.376 3.569-12.489 3.569Zm0-10.7c-8.112 0-12.489-2.532-12.489-3.568s4.377-3.568 12.489-3.568 12.489 2.522 12.489 3.555-4.376 3.571-12.489 3.571Zm37.467-21.41c-7.98 0-16.057 2.451-16.057 7.137v32.115c0 4.685 8.077 7.137 16.057 7.137s16.057-2.451 16.057-7.137V67.8c.001-4.687-8.081-7.139-16.056-7.139Zm0 42.82c-8.112 0-12.489-2.532-12.489-3.568v-6.077a28.3 28.3 0 0 0 12.489 2.5 28.3 28.3 0 0 0 12.489-2.5v6.066c.001 1.036-4.376 3.569-12.488 3.569Zm0-10.7c-8.112 0-12.489-2.532-12.489-3.568v-6.082a28.3 28.3 0 0 0 12.489 2.5 28.3 28.3 0 0 0 12.489-2.5v6.066c.001 1.036-4.376 3.569-12.488 3.569Zm0-10.7c-8.112 0-12.489-2.532-12.489-3.568v-6.086a28.3 28.3 0 0 0 12.489 2.5 28.3 28.3 0 0 0 12.489-2.5V78.5c.001 1.039-4.376 3.571-12.488 3.571Zm0-10.7c-8.112 0-12.489-2.532-12.489-3.568s4.377-3.568 12.489-3.568 12.49 2.507 12.49 3.545-4.377 3.566-12.489 3.566Zm37.467-21.41c-7.98 0-16.057 2.451-16.057 7.137v42.82c0 4.685 8.077 7.137 16.057 7.137s16.057-2.451 16.057-7.137V57.093c.001-4.685-8.076-7.137-16.056-7.137Zm0 3.568c8.112 0 12.489 2.532 12.489 3.568s-4.377 3.568-12.489 3.568S78.5 58.129 78.5 57.093s4.379-3.568 12.492-3.568Zm0 49.956c-8.112 0-12.489-2.532-12.489-3.568v-6.091a28.3 28.3 0 0 0 12.489 2.5 28.3 28.3 0 0 0 12.489-2.5v6.066c.001 1.036-4.38 3.569-12.488 3.569Zm0-10.7c-8.112 0-12.489-2.532-12.489-3.568v-6.096a28.3 28.3 0 0 0 12.489 2.5 28.3 28.3 0 0 0 12.489-2.5v6.066c.001 1.036-4.38 3.569-12.488 3.569Zm0-10.7c-8.112 0-12.489-2.532-12.489-3.568v-6.1a28.3 28.3 0 0 0 12.489 2.5 28.3 28.3 0 0 0 12.489-2.5V78.5c.001 1.039-4.38 3.571-12.488 3.571Zm0-10.7c-8.112 0-12.489-2.532-12.489-3.568v-6.105a28.3 28.3 0 0 0 12.489 2.5 28.3 28.3 0 0 0 12.489-2.5V67.8c.001 1.034-4.38 3.566-12.488 3.566ZM5.875 54.786a1.783 1.783 0 0 1 0-2.523l30.637-30.636a8.92 8.92 0 0 1 12.614 0L60.661 33.16 83.116 10.7h-6.4a3.57 3.57 0 0 1-3.566-3.563V3.568A3.57 3.57 0 0 1 76.718 0h19.626a5.36 5.36 0 0 1 5.356 5.352v19.626a3.57 3.57 0 0 1-3.568 3.568H94.56a3.57 3.57 0 0 1-3.568-3.568v-6.4L66.968 42.6a8.92 8.92 0 0 1-12.614 0L42.82 31.069 13.75 60.138a1.784 1.784 0 1 1-2.523-2.523l30.331-30.33a1.783 1.783 0 0 1 2.523 0l12.8 12.795a5.48 5.48 0 0 0 7.569 0l27.064-27.068a1.784 1.784 0 0 1 3.046 1.261v10.7h3.568V5.352a1.786 1.786 0 0 0-1.784-1.784H76.719v3.569h10.7a1.784 1.784 0 0 1 1.261 3.046L61.923 36.944a1.783 1.783 0 0 1-2.523 0L46.6 24.15a5.48 5.48 0 0 0-7.569 0L8.4 54.786a1.783 1.783 0 0 1-2.523 0Z" fill="#fff"></path>
                            </g>
                        </svg>