<svg xmlns="http://www.w3.org/2000/svg" width="106.54" height="105.372" viewBox="0 0 106.54 105.372">
                            <path d="M57.372 67.228h-9.626a1.72 1.72 0 0 0-1.718 1.718v34.707a1.72 1.72 0 0 0 1.718 1.718h9.626a1.72 1.72 0 0 0 1.718-1.718V68.946a1.72 1.72 0 0 0-1.718-1.718m-1.718 34.707h-6.189V70.664h6.189Zm22.22-28.143h-9.626a1.72 1.72 0 0 0-1.718 1.718v28.142a1.72 1.72 0 0 0 1.718 1.718h9.626a1.72 1.72 0 0 0 1.718-1.718V75.511a1.72 1.72 0 0 0-1.718-1.719m-1.718 28.142h-6.189V77.229h6.189ZM98.377 54.6h-9.626a1.72 1.72 0 0 0-1.718 1.718v47.333a1.72 1.72 0 0 0 1.718 1.718h9.626a1.72 1.72 0 0 0 1.718-1.718V56.319a1.72 1.72 0 0 0-1.718-1.718Zm-1.718 47.333h-6.19v-43.9h6.189ZM36.87 83.468h-9.626a1.72 1.72 0 0 0-1.718 1.718v18.467a1.72 1.72 0 0 0 1.718 1.718h9.626a1.72 1.72 0 0 0 1.718-1.718V85.186a1.72 1.72 0 0 0-1.718-1.718m-1.718 18.467h-6.19V86.904h6.189Zm37.572-44.148L87.2 44.62l-3.2.011a1.719 1.719 0 0 1-.006-3.437l7.66-.028a1.718 1.718 0 0 1 1.692 2.052l-1.486 7.514a1.718 1.718 0 0 1-3.371-.667l.476-2.406-14.747 13.415a1.72 1.72 0 0 1-1.835.308L52.8 52.961 33.1 67.923a1.718 1.718 0 1 1-2.078-2.737l20.5-15.568a1.72 1.72 0 0 1 1.718-.21Zm-37.638-.113v-7.719l17.67-17.454h1.051a2.507 2.507 0 0 0 2.5-2.5V25.82a2.507 2.507 0 0 0-2.5-2.5H2.5a2.507 2.507 0 0 0-2.5 2.5v4.177a2.507 2.507 0 0 0 2.5 2.5h1.051l17.67 17.454v12.117a1.718 1.718 0 0 0 2.386 1.583l10.424-4.393a1.72 1.72 0 0 0 1.055-1.584M3.436 26.753h49.438v2.311H3.436Zm5.009 5.748h39.421l-15.2 15.018h-9.017ZM24.662 59.48v-8.524h6.987v5.578ZM1.718 20.309h52.875a1.72 1.72 0 0 0 1.708-1.9 10.55 10.55 0 0 0-5.715-8.3 6.2 6.2 0 1 0-9.612 0 10.57 10.57 0 0 0-4.006 3.564 10.57 10.57 0 0 0-4.006-3.564 6.2 6.2 0 1 0-9.612 0 10.57 10.57 0 0 0-4.006 3.564 10.57 10.57 0 0 0-4.006-3.564 6.2 6.2 0 1 0-9.613 0 10.55 10.55 0 0 0-5.715 8.3 1.72 1.72 0 0 0 1.709 1.9Zm41.3-14.11a2.763 2.763 0 1 1 2.766 2.763h-.006a2.766 2.766 0 0 1-2.761-2.763Zm2.76 6.2h.007a7.13 7.13 0 0 1 6.629 4.473H39.148a7.13 7.13 0 0 1 6.629-4.473Zm-20.385-6.2a2.763 2.763 0 1 1 2.766 2.763h-.006a2.766 2.766 0 0 1-2.761-2.763Zm2.76 6.2h.006a7.13 7.13 0 0 1 6.629 4.473H21.523a7.13 7.13 0 0 1 6.629-4.473Zm-20.385-6.2a2.763 2.763 0 1 1 2.766 2.763h-.006a2.766 2.766 0 0 1-2.761-2.763Zm2.76 6.2h.007a7.13 7.13 0 0 1 6.629 4.473H3.9a7.13 7.13 0 0 1 6.627-4.473Zm87.621 14.374a4.05 4.05 0 0 1-.955 3.222 5.6 5.6 0 0 1-2.958 1.676v.215a1.719 1.719 0 1 1-3.437 0v-.245a5.3 5.3 0 0 1-3.9-3.815 1.718 1.718 0 1 1 3.335-.831 2.25 2.25 0 0 0 2.4 1.434 2.9 2.9 0 0 0 1.958-.68.64.64 0 0 0 .142-.56c-.038-.314-.127-1.049-2.487-1.436-4.183-.687-4.92-3.091-4.986-4.462a4.66 4.66 0 0 1 3.535-4.7v-.278a1.719 1.719 0 1 1 3.437 0v.267a5.3 5.3 0 0 1 3.488 3.121 1.718 1.718 0 1 1-3.169 1.33 2.2 2.2 0 0 0-2.591-1.19c-.309.07-1.312.37-1.268 1.286.011.222.044.9 2.11 1.237 3.254.534 5.051 2.019 5.342 4.413Zm-5.632-16.7a14.023 14.023 0 1 0 14.023 14.023A14.04 14.04 0 0 0 92.516 10.08Zm0 24.609A10.586 10.586 0 1 1 103.1 24.101a10.6 10.6 0 0 1-10.584 10.585Z" fill="#fff"></path>
                        </svg>